<svg xmlns:svg="http://www.w3.org/2000/svg" xmlns="http://www.w3.org/2000/svg" version="1.1" viewBox="0 0 145.1 53.6" height="53.6" width="145.1"><g transform="translate(-23.817064,-38.100967)" preserveAspectRatio="xMidYMid meet"><path d="m99.4 91.6c-0.4-0.1-2.2-0.3-3.8-0.5-6.3-0.9-12.4-2.5-18.8-5-1.5-0.6-7.8-3.6-14-6.7-14.6-7.3-18-8.5-23.4-8.2-2.8 0.1-4.2 0.8-7.5 3.5-1.3 1.1-2.4 1.9-2.5 1.7-0.1-0.4 0.9-2.2 2.3-4.2 2.2-3.1 2.4-4.8 0.9-8.6-1-2.6-1.4-5.3-0.9-6.5 0.2-0.5 0.3-0.3 0.3 1.1 0 1.6 0.6 4.2 1.8 7.6l0.5 1.4 1.2-1.7c1.7-2.4 7-10.3 7.3-11 0.7-1.3-1.1-3.3-3.6-4-1.9-0.6-3.4-0.1-5.3 1.6-0.7 0.6-0.9 0.7-0.7 0.3 0.7-1.3 2.3-2.8 3.7-3.5 1.3-0.6 1.9-0.7 3.6-0.7 2 0 2.2 0.1 3.5 0.9 0.8 0.5 1.6 0.8 1.8 0.7 0.6-0.2 1.5-1.8 1.5-2.6 0-0.4-0.2-0.9-0.4-1.1-0.4-0.3-0.4-0.4 0.3-0.5 1.2-0.3 3.3-0.3 3.3 0 0 0.1-0.8 1.6-1.9 3.4l-1.9 3.1 0.7 1.2c1.8 3.2 4.1 5.4 6.5 6.3 1.6 0.6 4.6 0.6 6.1 0 3.5-1.4 6.4-7 5.6-10.8-0.6-2.6-1.9-3.9-4.9-4.6-2.5-0.6-11.7-0.4-19.2 0.4-3.3 0.4-7.3 0.6-10.2 0.6-4.6 0-4.8 0-5.9-0.6-0.6-0.4-1.2-0.8-1.3-1.1-0.8-1.8-0.6-3.4 0.6-4.8 0.9-1 1.2-1 0.8 0-0.5 1.3 0 2.2 1.5 2.9 1.2 0.6 1.6 0.7 5.4 0.6 2.3 0 6.1-0.3 8.9-0.6 14.4-1.7 20.1-1.7 23.6 0.2 2.4 1.3 3.5 3.3 3.5 6.7 0 7.2-6.1 13.3-13.2 13.2-3.6 0-5.4-0.9-8.8-4.1-1.9-1.8-1.9-1.8-2.3-1.3-3 3.9-9.9 13.8-9.7 14 0 0 0.9-0.3 2-0.7 1.8-0.7 2.3-0.7 5.4-0.7 2.9 0 3.8 0.1 5.8 0.7 5.1 1.5 11.6 4.2 21.4 8.8 10.8 5 16.7 7.3 22.9 8.8 14.9 3.7 28.7 3.1 46.9-2.2 12.2-3.5 22.5-8 28.6-12.3 0.6-0.4 1.1-0.7 1.1-0.6 0.1 0.1-0.6 1-1.5 2.2-0.9 1.1-2 2.8-2.5 3.6-0.9 1.3-1.1 1.5-2.1 1.7-3 0.5-9.3 2.3-16.9 4.8-11 3.6-17.6 5.3-26.9 6.6-2.8 0.4-17.6 0.8-19.6 0.5zm63.9-21c0-0.5-0.1-0.8-0.2-0.8-0.1 0-1 0.3-2.1 0.7-1.6 0.6-2.2 0.7-3.8 0.6-3.2-0.2-5.3-1.6-6.7-4.7-0.6-1.2-0.7-1.8-0.7-3.8 0-2 0.1-2.6 0.7-3.9 0.4-0.8 1.2-2 1.8-2.5 2.4-2.3 7.7-2.9 9.8-1 0.3 0.2 0.5 0.4 0.6 0.4 0.1 0 0.2-1.9 0.2-4.3 0-4.8-0.3-5.9-1.6-6.2-1.4-0.3-1.5-0.4-1.1-0.6 0.6-0.3 5.3-0.9 5.5-0.7 0.1 0.1 0.1 5.4 0.1 11.7-0.1 13.4-0.1 13.6 1.7 14.5 0.6 0.3 1.1 0.6 1.1 0.7 0 0.1-0.7 0.2-1.7 0.3-0.9 0.1-2.2 0.2-2.8 0.3-1.1 0.2-1.1 0.1-1.1-0.7zm-2.4-0.8c1.7-1.2 2.6-4.5 2.3-8.6-0.3-4.3-1.3-6.2-3.5-6.6-3.2-0.6-5.7 2.1-6.2 6.6-0.5 4.2 1 8 3.5 9.1 1 0.5 3 0.3 3.9-0.4zm-89.8 0.9c-2.6-0.8-4-2.1-5.1-4.4-0.6-1.2-0.7-1.8-0.7-3.7 0-2 0.1-2.4 0.9-4 1-2.1 2.7-3.7 4.5-4.3 1.7-0.6 4.7-0.5 6 0.1 1.8 0.8 3.3 3.1 3.3 5.1v0.7l-5.1 0c-2.8 0-5.4 0-5.7 0-0.6 0-0.6 0.1-0.6 1.7 0 2.2 0.6 3.8 1.9 5.3 3.1 3.5 7 3.6 9.2 0.1 0.8-1.3 1.1-0.8 0.4 0.7-0.6 1.2-1.8 2.1-3.4 2.7-1.3 0.4-4.1 0.5-5.5 0zm6.1-11.6c0.2-0.6-0.4-2.5-1.1-3.3-1.4-1.7-4.4-1.6-5.9 0.1-0.8 0.9-1.5 2.8-1.2 3.3 0.1 0.1 1.8 0.3 4.1 0.3 3.1 0 4-0.1 4.1-0.4zm6.3 11.6c-1.7-0.7-1.7-1-1.7-8.7l0-7h-0.9c-1.1 0-1.2-0.3-0.2-0.8 0.9-0.5 2-1.9 2.9-3.6 0.4-0.8 0.8-1.4 1-1.4 0.2 0 0.3 1 0.3 2.5v2.5h5.5 5.5l-0.8 0.8c-1.2 1.2-1.1 2.6 0.5 7.1 0.7 2 1.3 3.8 1.3 4 0 0.9 0.6-0.2 1.3-2.4 0.4-1.2 1.1-3.1 1.6-4.2 0.5-1.1 0.8-2.4 0.8-2.9 0-0.9-0.6-1.8-1.3-1.8-0.2 0-0.3-0.1-0.2-0.3 0.1-0.2 1.6-0.3 3.5-0.3h3.3l-0.8 0.8c-1.1 1.2-1 2.6 0.6 7.4l1.3 3.8 0.4-0.9c0.2-0.5 0.9-2 1.5-3.4 1.3-3 1.7-4.8 1.2-6-0.2-0.5-0.5-0.9-0.8-1-1-0.4-0.2-0.6 2.2-0.6h2.6l-0.9 0.9c-1.4 1.3-2.2 2.9-4.4 8.9-1.1 3-2.2 5.8-2.5 6.2l-0.4 0.6-0.5-0.6c-0.3-0.3-0.5-0.8-0.5-1.1 0-0.9-3.5-10.9-3.7-10.7-0.1 0.1-0.9 2.1-1.8 4.3-1.9 4.8-3.2 7.9-3.5 7.9-0.4 0-1-1.2-1.3-2.6-0.6-2.7-2.6-8.5-3.7-10.8l-1-2.2h-2.2-2.2l-0.2 3.6c-0.4 8.1-0.2 9.9 1.2 11.1 1 0.9 2.5 0.7 3.6-0.3 0.5-0.5 0.8-0.6 0.8-0.3 0 1.6-4.7 2.7-7.1 1.7zm35.4 0.1c-3-0.5-5.6-2.4-6.8-5-0.9-1.9-0.8-4.7 0.2-6.7 0.9-1.9 2.6-3.5 4.4-4.4 1.3-0.6 1.8-0.7 4-0.7 3 0 4.4 0.5 6.2 2.4 2.4 2.4 3.3 5.8 2.3 8.8-0.7 2.1-2.8 4.3-4.9 5-1.9 0.7-3.7 0.9-5.5 0.6zm4.2-0.9c4.1-2.8 3.8-13.1-0.4-15.1-1-0.5-3.1-0.6-3.9-0.1-2.5 1.3-3.8 4.2-3.5 8.1 0.2 2.7 0.7 4.3 1.8 5.7 1.2 1.5 2.2 2 3.8 2 1 0 1.6-0.2 2.3-0.7zm13.2 0.6c-2-0.8-4.2-3.1-5-5.2-0.8-2.1-0.7-4.7 0.3-6.5 0.8-1.6 2.5-3.2 4.5-4.1 2-0.9 5.6-1 7.5-0.1 1.9 0.9 3.5 2.3 4.4 4.1 0.8 1.5 0.9 1.8 0.9 3.9 0 2-0.1 2.4-0.8 3.7-1.5 2.8-4.6 4.5-8.2 4.7-1.8 0.1-2.4 0-3.6-0.5zm5.8-0.6c1.8-1.2 3.1-4.3 3.1-7.4 0-1.8-0.8-4.6-1.7-5.9-1.1-1.7-2.3-2.3-4.2-2.1-2.7 0.2-4.4 2.2-5 6-0.5 2.8 0.4 6.5 2 8.5 1.3 1.6 4.1 2.1 5.8 1z" style="fill:#b7b8ba;stroke-width:0.3"/></g></svg>